<?xml version="1.0" encoding="UTF-8" standalone="no"?>
<svg
   xmlns:dc="http://purl.org/dc/elements/1.1/"
   xmlns:cc="http://creativecommons.org/ns#"
   xmlns:rdf="http://www.w3.org/1999/02/22-rdf-syntax-ns#"
   xmlns:svg="http://www.w3.org/2000/svg"
   xmlns="http://www.w3.org/2000/svg"
   xmlns:sodipodi="http://sodipodi.sourceforge.net/DTD/sodipodi-0.dtd"
   xmlns:inkscape="http://www.inkscape.org/namespaces/inkscape"
   aria-hidden="true"
   data-prefix="fas"
   data-icon="envelope"
   class="svg-inline--fa fa-envelope fa-w-16"
   role="img"
   viewBox="0 0 512 512"
   id="svg4279"
   version="1.1"
   inkscape:version="0.91 r13725"
   sodipodi:docname="envelope-solid.svg">
  <metadata
     id="metadata4287">
    <rdf:RDF>
      <cc:Work
         rdf:about="">
        <dc:format>image/svg+xml</dc:format>
        <dc:type
           rdf:resource="http://purl.org/dc/dcmitype/StillImage" />
        <dc:title />
      </cc:Work>
    </rdf:RDF>
  </metadata>
  <defs
     id="defs4285" />
  <sodipodi:namedview
     pagecolor="#ffffff"
     bordercolor="#666666"
     borderopacity="1"
     objecttolerance="10"
     gridtolerance="10"
     guidetolerance="10"
     inkscape:pageopacity="0"
     inkscape:pageshadow="2"
     inkscape:window-width="1535"
     inkscape:window-height="876"
     id="namedview4283"
     showgrid="false"
     inkscape:snap-object-midpoints="false"
     inkscape:zoom="1.4099609"
     inkscape:cx="382.25898"
     inkscape:cy="222.40588"
     inkscape:window-x="65"
     inkscape:window-y="24"
     inkscape:window-maximized="1"
     inkscape:current-layer="svg4279" />
  <path
     d="m 317.575,239.7 c 0.975,-0.775 2.425,-0.05 2.425,1.175 L 320,292 c 0,6.625 -5.375,12 -12,12 l -104,0 c -6.625,0 -12,-5.375 -12,-12 l 0,-51.1 c 0,-1.25 1.425,-1.95 2.425,-1.175 5.6,4.35 13.025,9.875 38.525,28.4 5.275,3.85 14.175,11.95 23.05,11.9 8.925,0.075 18,-8.2 23.075,-11.9 25.5,-18.525 32.9,-24.075 38.5,-28.425 z M 256,272 c 5.8,0.1 14.15,-7.3 18.35,-10.35 33.175,-24.075 35.7,-26.175 43.35,-32.175 1.45,-1.125 2.3,-2.875 2.3,-4.725 l 0,-4.75 c 0,-6.625 -5.375,-12 -12,-12 l -104,0 c -6.625,0 -12,5.375 -12,12 l 0,4.75 c 0,1.85 0.85,3.575 2.3,4.725 7.65,5.975 10.175,8.1 43.35,32.175 4.2,3.05 12.55,10.45 18.35,10.35 z"
     id="path4281"
     inkscape:connector-curvature="0"
     style="fill:#1ab5b3;fill-opacity:1" />
  <circle
     style="fill:none;stroke:#1ab5b3;stroke-width:10;stroke-miterlimit:5;stroke-dasharray:none;stroke-opacity:1"
     id="path4289"
     cx="256"
     cy="256"
     r="199.43216" />
</svg>
