<?xml version="1.0" encoding="UTF-8" standalone="no"?>
<!-- Created with sK1 2.0rc3 (http://sk1project.net/) -->

<svg
   xmlns:dc="http://purl.org/dc/elements/1.1/"
   xmlns:cc="http://creativecommons.org/ns#"
   xmlns:rdf="http://www.w3.org/1999/02/22-rdf-syntax-ns#"
   xmlns:svg="http://www.w3.org/2000/svg"
   xmlns="http://www.w3.org/2000/svg"
   xmlns:sodipodi="http://sodipodi.sourceforge.net/DTD/sodipodi-0.dtd"
   xmlns:inkscape="http://www.inkscape.org/namespaces/inkscape"
   height="512.0"
   viewBox="0 0 512.0 512.0"
   width="512.0"
   version="1.1"
   id="svg2"
   inkscape:version="0.91 r13725"
   sodipodi:docname="link-solid.svg">
  <metadata
     id="metadata3468">
    <rdf:RDF>
      <cc:Work
         rdf:about="">
        <dc:format>image/svg+xml</dc:format>
        <dc:type
           rdf:resource="http://purl.org/dc/dcmitype/StillImage" />
        <dc:title></dc:title>
      </cc:Work>
    </rdf:RDF>
  </metadata>
  <defs
     id="defs3466" />
  <sodipodi:namedview
     pagecolor="#ffffff"
     bordercolor="#666666"
     borderopacity="1"
     objecttolerance="10"
     gridtolerance="10"
     guidetolerance="10"
     inkscape:pageopacity="0"
     inkscape:pageshadow="2"
     inkscape:window-width="1535"
     inkscape:window-height="876"
     id="namedview3464"
     showgrid="false"
     inkscape:zoom="1.3558044"
     inkscape:cx="256"
     inkscape:cy="256"
     inkscape:window-x="65"
     inkscape:window-y="24"
     inkscape:window-maximized="1"
     inkscape:current-layer="svg2" />
  <g
     id="g3460"
     transform="matrix(0.5,0,0,0.5,127.99972,128)">
    <path
       style="fill:#000000"
       d="m 326.612,185.391 c 59.747,59.809 58.927,155.698 0.36,214.59 -0.11,0.12 -0.24,0.25 -0.36,0.37 l -67.2,67.2 c -59.27,59.27 -155.699,59.262 -214.96,0 -59.27,-59.26 -59.27,-155.7 0,-214.96 l 37.106,-37.106 c 9.84,-9.84 26.786,-3.3 27.294,10.606 0.648,17.722 3.826,35.527 9.69,52.721 1.986,5.822 0.567,12.262 -3.783,16.612 l -13.087,13.087 c -28.026,28.026 -28.905,73.66 -1.155,101.96 28.024,28.579 74.086,28.749 102.325,0.51 l 67.2,-67.19 c 28.191,-28.191 28.073,-73.757 0,-101.83 -3.701,-3.694 -7.429,-6.564 -10.341,-8.569 -4.0606,-2.8165 -6.7405,-7.3785 -6.946,-12.5754 -0.397,-10.5976 3.347,-21.4866 11.697,-29.8366 l 21.054,-21.055 c 5.521,-5.521 14.182,-6.199 20.584,-1.731 7.634,5.3749 14.339,11.0249 20.5167,17.2024 z M 467.547,44.449 c -59.261,-59.262 -155.69,-59.27 -214.96,0 l -67.2,67.2 c -0.12,0.12 -0.25,0.25 -0.36,0.37 -58.566,58.892 -59.387,154.781 0.36,214.59 6.1826,6.1718 12.8874,11.8215 20.0462,16.8703 6.8768,4.7937 15.5388,4.1147 21.0588,-1.4053 l 21.054,-21.055 c 8.35,-8.35 12.094,-19.239 11.698,-29.806 -0.2065,-5.2275 -2.8864,-9.7895 -6.8947,-12.5708 -2.9643,-2.0402 -6.6923,-4.9102 -10.3933,-8.6042 -28.073,-28.073 -28.191,-73.639 0,-101.83 l 67.2,-67.19 c 28.239,-28.239 74.3,-28.069 102.325,0.51 27.75,28.3 26.872,73.934 -1.155,101.96 l -13.087,13.087 c -4.35,4.35 -5.769,10.79 -3.783,16.612 5.864,17.194 9.042,34.999 9.69,52.721 0.509,13.906 17.454,20.446 27.294,10.606 l 37.106,-37.106 c 59.271,-59.259 59.271,-155.699 0.001,-214.959 z"
       id="path3462"
       inkscape:connector-curvature="0" />
  </g>
  <circle
     style="fill:none;stroke:#000000;stroke-width:0.98495072;stroke-miterlimit:4;stroke-dasharray:none;stroke-opacity:1"
     id="path3470"
     cx="256"
     cy="256"
     r="199.50752" />
</svg>
