<?xml version="1.0" encoding="UTF-8" standalone="no"?>
<svg
   xmlns:dc="http://purl.org/dc/elements/1.1/"
   xmlns:cc="http://creativecommons.org/ns#"
   xmlns:rdf="http://www.w3.org/1999/02/22-rdf-syntax-ns#"
   xmlns:svg="http://www.w3.org/2000/svg"
   xmlns="http://www.w3.org/2000/svg"
   xmlns:sodipodi="http://sodipodi.sourceforge.net/DTD/sodipodi-0.dtd"
   xmlns:inkscape="http://www.inkscape.org/namespaces/inkscape"
   aria-hidden="true"
   data-prefix="fas"
   data-icon="user-alt"
   class="svg-inline--fa fa-user-alt fa-w-16"
   role="img"
   viewBox="0 0 512 512"
   id="svg3400"
   version="1.1"
   inkscape:version="0.91 r13725"
   sodipodi:docname="user-alt-solid.svg">
  <metadata
     id="metadata3408">
    <rdf:RDF>
      <cc:Work
         rdf:about="">
        <dc:format>image/svg+xml</dc:format>
        <dc:type
           rdf:resource="http://purl.org/dc/dcmitype/StillImage" />
        <dc:title></dc:title>
      </cc:Work>
    </rdf:RDF>
  </metadata>
  <defs
     id="defs3406" />
  <sodipodi:namedview
     pagecolor="#ffffff"
     bordercolor="#666666"
     borderopacity="1"
     objecttolerance="10"
     gridtolerance="10"
     guidetolerance="10"
     inkscape:pageopacity="0"
     inkscape:pageshadow="2"
     inkscape:window-width="1535"
     inkscape:window-height="876"
     id="namedview3404"
     showgrid="false"
     inkscape:zoom="1.0123228"
     inkscape:cx="415.66505"
     inkscape:cy="224.48121"
     inkscape:window-x="65"
     inkscape:window-y="24"
     inkscape:window-maximized="1"
     inkscape:current-layer="svg3400" />
  <path
     d="m 256,272 c 39.75,0 72,-32.25 72,-72 0,-39.75 -32.25,-72 -72,-72 -39.75,0 -72,32.25 -72,72 0,39.75 32.25,72 72,72 z m 64,16 -27.55,0 c -11.1,5.1 -23.45,8 -36.45,8 -13,0 -25.3,-2.9 -36.45,-8 L 192,288 c -35.35,0 -64,28.65 -64,64 l 0,8 c 0,13.25 10.75,24 24,24 l 208,0 c 13.25,0 24,-10.75 24,-24 l 0,-8 c 0,-35.35 -28.65,-64 -64,-64 z"
     id="path3402"
     inkscape:connector-curvature="0"
     style="fill:currentColor" />
  <circle
     style="fill:none;stroke:#000000;stroke-width:0.99750626;stroke-miterlimit:4;stroke-dasharray:none;stroke-opacity:1"
     id="path3410"
     cx="255.5"
     cy="256.5"
     r="199.50125" />
</svg>
