<?xml version="1.0" encoding="UTF-8" standalone="no"?>
<svg
   xmlns:dc="http://purl.org/dc/elements/1.1/"
   xmlns:cc="http://creativecommons.org/ns#"
   xmlns:rdf="http://www.w3.org/1999/02/22-rdf-syntax-ns#"
   xmlns:svg="http://www.w3.org/2000/svg"
   xmlns="http://www.w3.org/2000/svg"
   xmlns:sodipodi="http://sodipodi.sourceforge.net/DTD/sodipodi-0.dtd"
   xmlns:inkscape="http://www.inkscape.org/namespaces/inkscape"
   aria-hidden="true"
   data-prefix="fas"
   data-icon="bars"
   class="svg-inline--fa fa-bars fa-w-14"
   role="img"
   viewBox="0 0 448 392"
   id="svg2"
   version="1.1"
   inkscape:version="0.91 r13725"
   sodipodi:docname="bars.svg"
   width="448"
   height="392">
  <metadata
     id="metadata10">
    <rdf:RDF>
      <cc:Work
         rdf:about="">
        <dc:format>image/svg+xml</dc:format>
        <dc:type
           rdf:resource="http://purl.org/dc/dcmitype/StillImage" />
        <dc:title></dc:title>
      </cc:Work>
    </rdf:RDF>
  </metadata>
  <defs
     id="defs8" />
  <sodipodi:namedview
     pagecolor="#ffffff"
     bordercolor="#666666"
     borderopacity="1"
     objecttolerance="10"
     gridtolerance="10"
     guidetolerance="10"
     inkscape:pageopacity="0"
     inkscape:pageshadow="2"
     inkscape:window-width="1535"
     inkscape:window-height="876"
     id="namedview6"
     showgrid="false"
     fit-margin-top="0"
     fit-margin-left="0"
     fit-margin-right="0"
     fit-margin-bottom="0"
     inkscape:zoom="1.3558044"
     inkscape:cx="224"
     inkscape:cy="196"
     inkscape:window-x="65"
     inkscape:window-y="24"
     inkscape:window-maximized="1"
     inkscape:current-layer="svg2" />
  <path
     d="m 16,72 416,0 c 8.837,0 16,-7.163 16,-16 l 0,-40 C 448,7.163 440.837,0 432,0 L 16,0 C 7.163,0 0,7.163 0,16 l 0,40 c 0,8.837 7.163,16 16,16 z m 0,160 416,0 c 8.837,0 16,-7.163 16,-16 l 0,-40 c 0,-8.837 -7.163,-16 -16,-16 l -416,0 c -8.837,0 -16,7.163 -16,16 l 0,40 c 0,8.837 7.163,16 16,16 z m 0,160 416,0 c 8.837,0 16,-7.163 16,-16 l 0,-40 c 0,-8.837 -7.163,-16 -16,-16 l -416,0 c -8.837,0 -16,7.163 -16,16 l 0,40 c 0,8.837 7.163,16 16,16 z"
     id="path4"
     inkscape:connector-curvature="0"
     style="fill:#ffffff" />
</svg>
